<svg id="visual" viewBox="0 0 200 200" width="200" height="200" xmlns="http://www.w3.org/2000/svg" xmlns:xlink="http://www.w3.org/1999/xlink" version="1.1"><g transform="translate(103.35668709667553 100.04370288173929)"><path d="M42.4 -64.7C55.3 -57.8 66.3 -46.5 71.3 -33.3C76.3 -20 75.3 -4.7 73.1 10.5C70.9 25.7 67.6 40.7 59.2 52.5C50.8 64.3 37.4 72.9 22.8 76.8C8.3 80.6 -7.4 79.6 -23.4 76.4C-39.3 73.2 -55.6 67.7 -66.2 56.7C-76.9 45.6 -82 29.1 -81.6 13.5C-81.1 -2.2 -75.1 -16.9 -69.6 -33C-64.1 -49.1 -59.1 -66.6 -47.6 -74.2C-36 -81.8 -18 -79.4 -1.6 -76.9C14.8 -74.3 29.6 -71.7 42.4 -64.7" fill="#00599f"></path></g></svg>