<svg id="visual" viewBox="0 0 960 250" width="960" height="250" xmlns="http://www.w3.org/2000/svg" xmlns:xlink="http://www.w3.org/1999/xlink" version="1.1"><path d="M0 112L12.3 114.5C24.7 117 49.3 122 74 120C98.7 118 123.3 109 148 108.8C172.7 108.7 197.3 117.3 221.8 120.8C246.3 124.3 270.7 122.7 295.2 120.5C319.7 118.3 344.3 115.7 369 115.5C393.7 115.3 418.3 117.7 443 119.5C467.7 121.3 492.3 122.7 517 119.7C541.7 116.7 566.3 109.3 591 110.3C615.7 111.3 640.3 120.7 664.8 121.3C689.3 122 713.7 114 738.2 110.2C762.7 106.3 787.3 106.7 812 106.5C836.7 106.3 861.3 105.7 886 105C910.7 104.3 935.3 103.7 947.7 103.3L960 103L960 0L947.7 0C935.3 0 910.7 0 886 0C861.3 0 836.7 0 812 0C787.3 0 762.7 0 738.2 0C713.7 0 689.3 0 664.8 0C640.3 0 615.7 0 591 0C566.3 0 541.7 0 517 0C492.3 0 467.7 0 443 0C418.3 0 393.7 0 369 0C344.3 0 319.7 0 295.2 0C270.7 0 246.3 0 221.8 0C197.3 0 172.7 0 148 0C123.3 0 98.7 0 74 0C49.3 0 24.7 0 12.3 0L0 0Z" fill="#754686"></path><path d="M0 107L12.3 103.5C24.7 100 49.3 93 74 88.8C98.7 84.7 123.3 83.3 148 84.3C172.7 85.3 197.3 88.7 221.8 90.7C246.3 92.7 270.7 93.3 295.2 94.5C319.7 95.7 344.3 97.3 369 98.8C393.7 100.3 418.3 101.7 443 102.2C467.7 102.7 492.3 102.3 517 102.5C541.7 102.7 566.3 103.3 591 103.3C615.7 103.3 640.3 102.7 664.8 101.3C689.3 100 713.7 98 738.2 96.3C762.7 94.7 787.3 93.3 812 94C836.7 94.7 861.3 97.3 886 99.5C910.7 101.7 935.3 103.3 947.7 104.2L960 105L960 0L947.7 0C935.3 0 910.7 0 886 0C861.3 0 836.7 0 812 0C787.3 0 762.7 0 738.2 0C713.7 0 689.3 0 664.8 0C640.3 0 615.7 0 591 0C566.3 0 541.7 0 517 0C492.3 0 467.7 0 443 0C418.3 0 393.7 0 369 0C344.3 0 319.7 0 295.2 0C270.7 0 246.3 0 221.8 0C197.3 0 172.7 0 148 0C123.3 0 98.7 0 74 0C49.3 0 24.7 0 12.3 0L0 0Z" fill="#62387d"></path><path d="M0 65L12.3 65C24.7 65 49.3 65 74 66C98.7 67 123.3 69 148 71.2C172.7 73.3 197.3 75.7 221.8 74C246.3 72.3 270.7 66.7 295.2 64.8C319.7 63 344.3 65 369 66C393.7 67 418.3 67 443 67.3C467.7 67.7 492.3 68.3 517 67.7C541.7 67 566.3 65 591 64.8C615.7 64.7 640.3 66.3 664.8 68.8C689.3 71.3 713.7 74.7 738.2 76.8C762.7 79 787.3 80 812 80.2C836.7 80.3 861.3 79.7 886 77.2C910.7 74.7 935.3 70.3 947.7 68.2L960 66L960 0L947.7 0C935.3 0 910.7 0 886 0C861.3 0 836.7 0 812 0C787.3 0 762.7 0 738.2 0C713.7 0 689.3 0 664.8 0C640.3 0 615.7 0 591 0C566.3 0 541.7 0 517 0C492.3 0 467.7 0 443 0C418.3 0 393.7 0 369 0C344.3 0 319.7 0 295.2 0C270.7 0 246.3 0 221.8 0C197.3 0 172.7 0 148 0C123.3 0 98.7 0 74 0C49.3 0 24.7 0 12.3 0L0 0Z" fill="#4e2b75"></path><path d="M0 56L12.3 56.2C24.7 56.3 49.3 56.7 74 53.8C98.7 51 123.3 45 148 43.3C172.7 41.7 197.3 44.3 221.8 46.8C246.3 49.3 270.7 51.7 295.2 53.7C319.7 55.7 344.3 57.3 369 57.2C393.7 57 418.3 55 443 52.8C467.7 50.7 492.3 48.3 517 47.2C541.7 46 566.3 46 591 45.3C615.7 44.7 640.3 43.3 664.8 45.2C689.3 47 713.7 52 738.2 54.5C762.7 57 787.3 57 812 56.5C836.7 56 861.3 55 886 53.8C910.7 52.7 935.3 51.3 947.7 50.7L960 50L960 0L947.7 0C935.3 0 910.7 0 886 0C861.3 0 836.7 0 812 0C787.3 0 762.7 0 738.2 0C713.7 0 689.3 0 664.8 0C640.3 0 615.7 0 591 0C566.3 0 541.7 0 517 0C492.3 0 467.7 0 443 0C418.3 0 393.7 0 369 0C344.3 0 319.7 0 295.2 0C270.7 0 246.3 0 221.8 0C197.3 0 172.7 0 148 0C123.3 0 98.7 0 74 0C49.3 0 24.7 0 12.3 0L0 0Z" fill="#381f6d"></path><path d="M0 29L12.3 28C24.7 27 49.3 25 74 25.3C98.7 25.7 123.3 28.3 148 28.2C172.7 28 197.3 25 221.8 24.2C246.3 23.3 270.7 24.7 295.2 26.2C319.7 27.7 344.3 29.3 369 29.3C393.7 29.3 418.3 27.7 443 28C467.7 28.3 492.3 30.7 517 31.3C541.7 32 566.3 31 591 30C615.7 29 640.3 28 664.8 27.3C689.3 26.7 713.7 26.3 738.2 25.2C762.7 24 787.3 22 812 21.7C836.7 21.3 861.3 22.7 886 24C910.7 25.3 935.3 26.7 947.7 27.3L960 28L960 0L947.7 0C935.3 0 910.7 0 886 0C861.3 0 836.7 0 812 0C787.3 0 762.7 0 738.2 0C713.7 0 689.3 0 664.8 0C640.3 0 615.7 0 591 0C566.3 0 541.7 0 517 0C492.3 0 467.7 0 443 0C418.3 0 393.7 0 369 0C344.3 0 319.7 0 295.2 0C270.7 0 246.3 0 221.8 0C197.3 0 172.7 0 148 0C123.3 0 98.7 0 74 0C49.3 0 24.7 0 12.3 0L0 0Z" fill="#1c1465"></path></svg>