<svg id="visual" viewBox="0 0 960 250" width="960" height="250" xmlns="http://www.w3.org/2000/svg" xmlns:xlink="http://www.w3.org/1999/xlink" version="1.1"><path d="M0 119L12.3 123.5C24.7 128 49.3 137 74 141.5C98.7 146 123.3 146 148 144.8C172.7 143.7 197.3 141.3 221.8 136.3C246.3 131.3 270.7 123.7 295.2 121.3C319.7 119 344.3 122 369 127C393.7 132 418.3 139 443 140.5C467.7 142 492.3 138 517 133C541.7 128 566.3 122 591 121.8C615.7 121.7 640.3 127.3 664.8 128.7C689.3 130 713.7 127 738.2 128.8C762.7 130.7 787.3 137.3 812 137.5C836.7 137.7 861.3 131.3 886 128.7C910.7 126 935.3 127 947.7 127.5L960 128L960 251L947.7 251C935.3 251 910.7 251 886 251C861.3 251 836.7 251 812 251C787.3 251 762.7 251 738.2 251C713.7 251 689.3 251 664.8 251C640.3 251 615.7 251 591 251C566.3 251 541.7 251 517 251C492.3 251 467.7 251 443 251C418.3 251 393.7 251 369 251C344.3 251 319.7 251 295.2 251C270.7 251 246.3 251 221.8 251C197.3 251 172.7 251 148 251C123.3 251 98.7 251 74 251C49.3 251 24.7 251 12.3 251L0 251Z" fill="#754686"></path><path d="M0 163L12.3 159.5C24.7 156 49.3 149 74 149.8C98.7 150.7 123.3 159.3 148 160.3C172.7 161.3 197.3 154.7 221.8 152.8C246.3 151 270.7 154 295.2 152.8C319.7 151.7 344.3 146.3 369 148.3C393.7 150.3 418.3 159.7 443 161.5C467.7 163.3 492.3 157.7 517 152.8C541.7 148 566.3 144 591 146.7C615.7 149.3 640.3 158.7 664.8 159.3C689.3 160 713.7 152 738.2 147.8C762.7 143.7 787.3 143.3 812 142.8C836.7 142.3 861.3 141.7 886 144.8C910.7 148 935.3 155 947.7 158.5L960 162L960 251L947.7 251C935.3 251 910.7 251 886 251C861.3 251 836.7 251 812 251C787.3 251 762.7 251 738.2 251C713.7 251 689.3 251 664.8 251C640.3 251 615.7 251 591 251C566.3 251 541.7 251 517 251C492.3 251 467.7 251 443 251C418.3 251 393.7 251 369 251C344.3 251 319.7 251 295.2 251C270.7 251 246.3 251 221.8 251C197.3 251 172.7 251 148 251C123.3 251 98.7 251 74 251C49.3 251 24.7 251 12.3 251L0 251Z" fill="#62387d"></path><path d="M0 181L12.3 178.8C24.7 176.7 49.3 172.3 74 171.2C98.7 170 123.3 172 148 171.7C172.7 171.3 197.3 168.7 221.8 169.8C246.3 171 270.7 176 295.2 177C319.7 178 344.3 175 369 173.8C393.7 172.7 418.3 173.3 443 172.3C467.7 171.3 492.3 168.7 517 166.8C541.7 165 566.3 164 591 164.8C615.7 165.7 640.3 168.3 664.8 169.7C689.3 171 713.7 171 738.2 173.8C762.7 176.7 787.3 182.3 812 182.2C836.7 182 861.3 176 886 172.5C910.7 169 935.3 168 947.7 167.5L960 167L960 251L947.7 251C935.3 251 910.7 251 886 251C861.3 251 836.7 251 812 251C787.3 251 762.7 251 738.2 251C713.7 251 689.3 251 664.8 251C640.3 251 615.7 251 591 251C566.3 251 541.7 251 517 251C492.3 251 467.7 251 443 251C418.3 251 393.7 251 369 251C344.3 251 319.7 251 295.2 251C270.7 251 246.3 251 221.8 251C197.3 251 172.7 251 148 251C123.3 251 98.7 251 74 251C49.3 251 24.7 251 12.3 251L0 251Z" fill="#4e2b75"></path><path d="M0 199L12.3 198.7C24.7 198.3 49.3 197.7 74 199.3C98.7 201 123.3 205 148 206.2C172.7 207.3 197.3 205.7 221.8 203.2C246.3 200.7 270.7 197.3 295.2 198C319.7 198.7 344.3 203.3 369 205.3C393.7 207.3 418.3 206.7 443 203.8C467.7 201 492.3 196 517 196.3C541.7 196.7 566.3 202.3 591 203.8C615.7 205.3 640.3 202.7 664.8 200.7C689.3 198.7 713.7 197.3 738.2 198C762.7 198.7 787.3 201.3 812 200.3C836.7 199.3 861.3 194.7 886 192.3C910.7 190 935.3 190 947.7 190L960 190L960 251L947.7 251C935.3 251 910.7 251 886 251C861.3 251 836.7 251 812 251C787.3 251 762.7 251 738.2 251C713.7 251 689.3 251 664.8 251C640.3 251 615.7 251 591 251C566.3 251 541.7 251 517 251C492.3 251 467.7 251 443 251C418.3 251 393.7 251 369 251C344.3 251 319.7 251 295.2 251C270.7 251 246.3 251 221.8 251C197.3 251 172.7 251 148 251C123.3 251 98.7 251 74 251C49.3 251 24.7 251 12.3 251L0 251Z" fill="#381f6d"></path><path d="M0 219L12.3 218.2C24.7 217.3 49.3 215.7 74 217.2C98.7 218.7 123.3 223.3 148 224.8C172.7 226.3 197.3 224.7 221.8 224C246.3 223.3 270.7 223.7 295.2 224C319.7 224.3 344.3 224.7 369 225.2C393.7 225.7 418.3 226.3 443 224.5C467.7 222.7 492.3 218.3 517 216.3C541.7 214.3 566.3 214.7 591 215.7C615.7 216.7 640.3 218.3 664.8 219C689.3 219.7 713.7 219.3 738.2 219.2C762.7 219 787.3 219 812 219.3C836.7 219.7 861.3 220.3 886 220.3C910.7 220.3 935.3 219.7 947.7 219.3L960 219L960 251L947.7 251C935.3 251 910.7 251 886 251C861.3 251 836.7 251 812 251C787.3 251 762.7 251 738.2 251C713.7 251 689.3 251 664.8 251C640.3 251 615.7 251 591 251C566.3 251 541.7 251 517 251C492.3 251 467.7 251 443 251C418.3 251 393.7 251 369 251C344.3 251 319.7 251 295.2 251C270.7 251 246.3 251 221.8 251C197.3 251 172.7 251 148 251C123.3 251 98.7 251 74 251C49.3 251 24.7 251 12.3 251L0 251Z" fill="#1c1465"></path></svg>