<?xml version="1.0" encoding="utf-8"?>
<!-- Generator: Adobe Illustrator 26.1.0, SVG Export Plug-In . SVG Version: 6.00 Build 0)  -->
<svg version="1.1" id="Warstwa_1" xmlns="http://www.w3.org/2000/svg" xmlns:xlink="http://www.w3.org/1999/xlink" x="0px" y="0px"
	 viewBox="0 0 768 1366" style="enable-background:new 0 0 768 1366;" xml:space="preserve">
<style type="text/css">
	.st0{fill:url(#SVGID_1_);}
	.st1{fill:url(#SVGID_00000028305169815019612470000013846796345999494275_);}
	.st2{fill:url(#SVGID_00000042704964602418685980000004038909319226966958_);}
	.st3{fill:url(#SVGID_00000156584389575064354360000011077202755886360481_);}
	.st4{fill:url(#SVGID_00000063624032023068509570000005171178761922025903_);}
	.st5{fill:url(#SVGID_00000127042651773100361060000002383613280898733963_);}
	.st6{fill:url(#SVGID_00000014602061908200495210000011821165037741183399_);}
	.st7{fill:url(#SVGID_00000083800352676850655400000011678772347173570219_);}
	.st8{fill:url(#SVGID_00000075163211653533384770000011242758353425769626_);}
	.st9{fill:url(#SVGID_00000133489982734012612890000005455984403864623499_);}
	.st10{fill:url(#SVGID_00000045604359828392529670000009307160724141515137_);}
	.st11{fill:url(#SVGID_00000179630160846697952660000006275714405511017880_);}
	.st12{fill:url(#SVGID_00000183238866314334904880000013636603998765915779_);}
	.st13{fill:url(#SVGID_00000127020967832133049160000012628105231491121048_);}
	.st14{fill:url(#SVGID_00000074403450242268139490000012551714339580267674_);}
	.st15{fill:url(#SVGID_00000177459405924334690570000009442251053043307674_);}
	.st16{fill:url(#SVGID_00000014602058114099804260000016690153385298440611_);}
	.st17{fill:url(#SVGID_00000105409761928359091690000014910110958869528476_);}
	.st18{fill:url(#SVGID_00000167391201663866847320000010048237321354966426_);}
	.st19{fill:url(#SVGID_00000109714023272460295090000017025896338235557308_);}
	.st20{fill:url(#SVGID_00000111894366758888992670000012348898072818611854_);}
	.st21{fill:url(#SVGID_00000040553914485532353230000012815002043436494741_);}
	.st22{fill:url(#SVGID_00000012471679152849378470000008287818076484872354_);}
	.st23{fill:url(#SVGID_00000093176900224866981800000012328385102675306398_);}
	.st24{fill:url(#SVGID_00000016772133939521339670000010985150915678819481_);}
	.st25{fill:url(#SVGID_00000060747116852845013650000000708749054420274320_);}
	.st26{fill:url(#SVGID_00000023256204142686106810000016285304583597556131_);}
</style>
<g>
	<linearGradient id="SVGID_1_" gradientUnits="userSpaceOnUse" x1="776.2079" y1="1094.3868" x2="-655.1277" y2="-162.1589">
		<stop  offset="0" style="stop-color:#536A77"/>
		<stop  offset="1" style="stop-color:#2A2E49"/>
	</linearGradient>
	<path class="st0" d="M167.75,598.51c40.83-3.95,52.26-25.17,52.26-25.17l-17.13-20.55c0,0-10.67,22.02-41.71,20.55L167.75,598.51z"
		/>
	
		<linearGradient id="SVGID_00000121238673149668594720000014304830732466436777_" gradientUnits="userSpaceOnUse" x1="781.4241" y1="785.7711" x2="-28.4361" y2="-139.6447">
		<stop  offset="0" style="stop-color:#536A77"/>
		<stop  offset="1" style="stop-color:#2A2E49"/>
	</linearGradient>
	<path style="fill:url(#SVGID_00000121238673149668594720000014304830732466436777_);" d="M569.43,575.06
		c0,0,7.41,19.51,48.24,23.46l6.57-25.17c-31.03,1.47-38.54-18.98-38.54-18.98S572.85,568.21,569.43,575.06z"/>
	
		<linearGradient id="SVGID_00000111877762166735133580000008067105959506860468_" gradientUnits="userSpaceOnUse" x1="2.6653" y1="839.9028" x2="788.3236" y2="1282.8459">
		<stop  offset="0" style="stop-color:#BBD1C4"/>
		<stop  offset="1" style="stop-color:#534976"/>
	</linearGradient>
	<path style="fill:url(#SVGID_00000111877762166735133580000008067105959506860468_);" d="M518.58,1031.29v-0.86
		c0-3.1-2.51-5.61-5.61-5.61h-16.81c-3.1,0-5.61-2.51-5.61-5.61l0,0c0-3.1-2.51-5.61-5.61-5.61h-189c-3.1,0-5.61,2.51-5.61,5.61l0,0
		c0,3.1-2.51,5.61-5.61,5.61h-16.81c-3.1,0-5.61,2.51-5.61,5.61v0.86c0,3.1-2.51,5.61-5.61,5.61h-16.53c-3.1,0-5.61,2.51-5.61,5.61
		v32.03c0,3.1,2.51,5.61,5.61,5.61h300.55c3.1,0,5.61-2.51,5.61-5.61v-32.03c0-3.1-2.51-5.61-5.61-5.61h-16.53
		C521.09,1036.9,518.58,1034.39,518.58,1031.29z"/>
	
		<linearGradient id="SVGID_00000099636963787437248910000009812670257784756115_" gradientUnits="userSpaceOnUse" x1="241.7375" y1="779.9509" x2="568.0121" y2="1085.8334">
		<stop  offset="0" style="stop-color:#BBD1C4"/>
		<stop  offset="1" style="stop-color:#534976"/>
	</linearGradient>
	<path style="fill:url(#SVGID_00000099636963787437248910000009812670257784756115_);" d="M443.84,1021.25
		c0,0-27.91-96.82-0.51-149.83c27.41-53.01-12.05-59.17-12.05-59.17h-81.03c0,0-39.46,6.16-12.05,59.17s-0.51,149.83-0.51,149.83
		H443.84z"/>
	
		<linearGradient id="SVGID_00000065782442317505908950000003236171530214983338_" gradientUnits="userSpaceOnUse" x1="449.5081" y1="826.2006" x2="355.2354" y2="795.2159">
		<stop  offset="0" style="stop-color:#222526"/>
		<stop  offset="1" style="stop-color:#414345"/>
	</linearGradient>
	<path style="fill:url(#SVGID_00000065782442317505908950000003236171530214983338_);" d="M426.9,813.28h-72.92
		c-2.09,0-3.79-1.7-3.79-3.79v-5.4c0-2.09,1.7-3.79,3.79-3.79h72.92c2.09,0,3.79,1.7,3.79,3.79v5.4
		C430.69,811.58,428.99,813.28,426.9,813.28z"/>
	
		<linearGradient id="SVGID_00000099656033547658275590000001460412180316344240_" gradientUnits="userSpaceOnUse" x1="434.4146" y1="811.1609" x2="353.1696" y2="759.0476">
		<stop  offset="0" style="stop-color:#222526"/>
		<stop  offset="1" style="stop-color:#414345"/>
	</linearGradient>
	<path style="fill:url(#SVGID_00000099656033547658275590000001460412180316344240_);" d="M415.37,801.15
		c0,0-12.73-16.66-0.23-25.79c12.5-9.12-5.5-10.18-5.5-10.18h-36.96c0,0-18,1.06-5.5,10.18c12.5,9.12-0.23,25.79-0.23,25.79H415.37z
		"/>
	
		<linearGradient id="SVGID_00000059295106933211874910000003705251491003176077_" gradientUnits="userSpaceOnUse" x1="418.567" y1="778.1219" x2="368.3254" y2="751.8874">
		<stop  offset="0" style="stop-color:#222526"/>
		<stop  offset="1" style="stop-color:#414345"/>
	</linearGradient>
	<path style="fill:url(#SVGID_00000059295106933211874910000003705251491003176077_);" d="M410.46,766.59h-37.22
		c-0.78,0-1.41-0.63-1.41-1.41v-2.01c0-0.78,0.63-1.41,1.41-1.41h37.22c0.78,0,1.41,0.63,1.41,1.41v2.01
		C411.88,765.96,411.24,766.59,410.46,766.59z"/>
	
		<linearGradient id="SVGID_00000057855680542341210470000002969903239039573131_" gradientUnits="userSpaceOnUse" x1="409.1877" y1="731.8099" x2="375.9956" y2="717.46">
		<stop  offset="0" style="stop-color:#222526"/>
		<stop  offset="1" style="stop-color:#414345"/>
	</linearGradient>
	<path style="fill:url(#SVGID_00000057855680542341210470000002969903239039573131_);" d="M402.64,726.64h-22.69
		c-0.83,0-1.5-0.67-1.5-1.5V723c0-0.83,0.67-1.5,1.5-1.5h22.69c0.83,0,1.5,0.67,1.5,1.5v2.14
		C404.14,725.97,403.47,726.64,402.64,726.64z"/>
	
		<linearGradient id="SVGID_00000083080213611737765170000004182395188250450090_" gradientUnits="userSpaceOnUse" x1="1042.2874" y1="1172.2646" x2="-717.265" y2="-549.4165">
		<stop  offset="0" style="stop-color:#536A77"/>
		<stop  offset="1" style="stop-color:#2A2E49"/>
	</linearGradient>
	<path style="fill:url(#SVGID_00000083080213611737765170000004182395188250450090_);" d="M516.33,682.97
		c0,0,15.97,29.79,56.8,33.73l9.8-21.99c-31.03,1.47-44.33-23.74-44.33-23.74S530.03,677.83,516.33,682.97z"/>
	
		<linearGradient id="SVGID_00000005977057590131021510000017728798884649169329_" gradientUnits="userSpaceOnUse" x1="510.8657" y1="309.8076" x2="703.1346" y2="793.3932">
		<stop  offset="0" style="stop-color:#BBD1C4"/>
		<stop  offset="1" style="stop-color:#534976"/>
	</linearGradient>
	<path style="fill:url(#SVGID_00000005977057590131021510000017728798884649169329_);" d="M645.11,361.37
		c-0.06-2.21,2.29-1.2,6.54,1.52c47.66,30.52,69.67,88.78,54.71,143.36c-23.02,84.01-69.46,194.28-161.27,255.91
		C545.09,762.16,650.93,586.17,645.11,361.37z"/>
	
		<linearGradient id="SVGID_00000048480308677106023740000008585748700025971644_" gradientUnits="userSpaceOnUse" x1="727.4852" y1="1194.0399" x2="-560.1343" y2="-113.9717">
		<stop  offset="0" style="stop-color:#536A77"/>
		<stop  offset="1" style="stop-color:#2A2E49"/>
	</linearGradient>
	<path style="fill:url(#SVGID_00000048480308677106023740000008585748700025971644_);" d="M212.28,716.7
		c40.83-3.95,57.4-33.73,57.4-33.73l-22.27-11.99c0,0-13.9,25.2-44.93,23.74L212.28,716.7z"/>
	
		<linearGradient id="SVGID_00000090986499945258426960000000961687062562673032_" gradientUnits="userSpaceOnUse" x1="-14.5542" y1="236.5088" x2="302.981" y2="792.9235">
		<stop  offset="0" style="stop-color:#BBD1C4"/>
		<stop  offset="1" style="stop-color:#534976"/>
	</linearGradient>
	<path style="fill:url(#SVGID_00000090986499945258426960000000961687062562673032_);" d="M140,361.37c0.06-2.21-2.29-1.2-6.54,1.52
		C85.8,393.4,63.79,451.66,78.74,506.25c23.02,84.01,69.46,194.28,161.27,255.91C240.01,762.16,134.18,586.17,140,361.37z"/>
	
		<linearGradient id="SVGID_00000134230805635502875470000000334922687764948630_" gradientUnits="userSpaceOnUse" x1="186.7297" y1="229.509" x2="547.9623" y2="506.2598">
		<stop  offset="0" style="stop-color:#BBD1C4"/>
		<stop  offset="1" style="stop-color:#534976"/>
	</linearGradient>
	<path style="fill:url(#SVGID_00000134230805635502875470000000334922687764948630_);" d="M514.36,349.59l-0.18-0.24h-56.94
		c-13.72,0-24.84-11.12-24.84-24.84v0h-66.8v0c0,13.72-11.12,24.84-24.84,24.84h-59.62l0.29,0.24c0,0-44.73-1.21-17.51,30.49
		s35.03,78.04,35.03,78.04h197.9c0,0,7.81-46.33,35.03-78.04C559.08,348.37,514.36,349.59,514.36,349.59z"/>
	
		<linearGradient id="SVGID_00000008130991339484123370000006851457858109282718_" gradientUnits="userSpaceOnUse" x1="531.4704" y1="411.1422" x2="150.8085" y2="133.87">
		<stop  offset="0" style="stop-color:#112134"/>
		<stop  offset="0.2138" style="stop-color:#0F2A45;stop-opacity:0.7862"/>
		<stop  offset="0.6377" style="stop-color:#094373;stop-opacity:0.3623"/>
		<stop  offset="1" style="stop-color:#045A9E;stop-opacity:0"/>
	</linearGradient>
	<path style="fill:url(#SVGID_00000008130991339484123370000006851457858109282718_);" d="M412.28,326.83v-22.94
		c-18.38-5.78-24.62-4.35-24.62-4.35v27.28H412.28z"/>
	<g>
		
			<linearGradient id="SVGID_00000126287122774356532320000011000712624462711725_" gradientUnits="userSpaceOnUse" x1="375.4537" y1="853.1992" x2="327.0877" y2="810.262">
			<stop  offset="0" style="stop-color:#752648"/>
			<stop  offset="0.4428" style="stop-color:#73274A;stop-opacity:0.5572"/>
			<stop  offset="0.6024" style="stop-color:#6C2A4F;stop-opacity:0.3976"/>
			<stop  offset="0.716" style="stop-color:#61305A;stop-opacity:0.284"/>
			<stop  offset="0.808" style="stop-color:#503868;stop-opacity:0.192"/>
			<stop  offset="0.8867" style="stop-color:#3A437B;stop-opacity:0.1133"/>
			<stop  offset="0.9551" style="stop-color:#1F4F92;stop-opacity:0.0449"/>
			<stop  offset="1" style="stop-color:#095AA5;stop-opacity:0"/>
		</linearGradient>
		<path style="fill:url(#SVGID_00000126287122774356532320000011000712624462711725_);" d="M354.16,825.53h-3.8
			c-1.35,0-2.61,0.72-3.28,1.9l-1.9,3.29c-0.68,1.17-0.68,2.62,0,3.79l1.9,3.29c0.68,1.17,1.93,1.9,3.28,1.9h3.8
			c1.35,0,2.61-0.72,3.28-1.9l1.9-3.29c0.68-1.17,0.68-2.62,0-3.79l-1.9-3.29C356.77,826.26,355.52,825.53,354.16,825.53z"/>
		
			<linearGradient id="SVGID_00000118369999847109693470000011722329196560583852_" gradientUnits="userSpaceOnUse" x1="342.5321" y1="842.0922" x2="360.1396" y2="824.9413">
			<stop  offset="0" style="stop-color:#752648"/>
			<stop  offset="0.4428" style="stop-color:#73274A;stop-opacity:0.5572"/>
			<stop  offset="0.6024" style="stop-color:#6C2A4F;stop-opacity:0.3976"/>
			<stop  offset="0.716" style="stop-color:#61305A;stop-opacity:0.284"/>
			<stop  offset="0.808" style="stop-color:#503868;stop-opacity:0.192"/>
			<stop  offset="0.8867" style="stop-color:#3A437B;stop-opacity:0.1133"/>
			<stop  offset="0.9551" style="stop-color:#1F4F92;stop-opacity:0.0449"/>
			<stop  offset="1" style="stop-color:#095AA5;stop-opacity:0"/>
		</linearGradient>
		<path style="fill:url(#SVGID_00000118369999847109693470000011722329196560583852_);" d="M354.63,827h-4.74
			c-0.54,0-1.04,0.29-1.31,0.76l-2.37,4.1c-0.27,0.47-0.27,1.04,0,1.51l2.37,4.1c0.27,0.47,0.77,0.76,1.31,0.76h4.74
			c0.54,0,1.04-0.29,1.31-0.76l2.37-4.1c0.27-0.47,0.27-1.04,0-1.51l-2.37-4.1C355.67,827.29,355.17,827,354.63,827z"/>
	</g>
	<g>
		
			<linearGradient id="SVGID_00000160890496384740456340000006934564597488138388_" gradientUnits="userSpaceOnUse" x1="414.8489" y1="856.6248" x2="366.4829" y2="813.6877">
			<stop  offset="0" style="stop-color:#752648"/>
			<stop  offset="0.4428" style="stop-color:#73274A;stop-opacity:0.5572"/>
			<stop  offset="0.6024" style="stop-color:#6C2A4F;stop-opacity:0.3976"/>
			<stop  offset="0.716" style="stop-color:#61305A;stop-opacity:0.284"/>
			<stop  offset="0.808" style="stop-color:#503868;stop-opacity:0.192"/>
			<stop  offset="0.8867" style="stop-color:#3A437B;stop-opacity:0.1133"/>
			<stop  offset="0.9551" style="stop-color:#1F4F92;stop-opacity:0.0449"/>
			<stop  offset="1" style="stop-color:#095AA5;stop-opacity:0"/>
		</linearGradient>
		<path style="fill:url(#SVGID_00000160890496384740456340000006934564597488138388_);" d="M393.56,828.96h-3.8
			c-1.35,0-2.61,0.72-3.28,1.9l-1.9,3.29c-0.68,1.17-0.68,2.62,0,3.79l1.9,3.29c0.68,1.17,1.93,1.9,3.28,1.9h3.8
			c1.35,0,2.61-0.72,3.28-1.9l1.9-3.29c0.68-1.17,0.68-2.62,0-3.79l-1.9-3.29C396.16,829.68,394.91,828.96,393.56,828.96z"/>
		
			<linearGradient id="SVGID_00000183934094326276369100000000333541487988636304_" gradientUnits="userSpaceOnUse" x1="381.9272" y1="845.5179" x2="399.5348" y2="828.367">
			<stop  offset="0" style="stop-color:#752648"/>
			<stop  offset="0.4428" style="stop-color:#73274A;stop-opacity:0.5572"/>
			<stop  offset="0.6024" style="stop-color:#6C2A4F;stop-opacity:0.3976"/>
			<stop  offset="0.716" style="stop-color:#61305A;stop-opacity:0.284"/>
			<stop  offset="0.808" style="stop-color:#503868;stop-opacity:0.192"/>
			<stop  offset="0.8867" style="stop-color:#3A437B;stop-opacity:0.1133"/>
			<stop  offset="0.9551" style="stop-color:#1F4F92;stop-opacity:0.0449"/>
			<stop  offset="1" style="stop-color:#095AA5;stop-opacity:0"/>
		</linearGradient>
		<path style="fill:url(#SVGID_00000183934094326276369100000000333541487988636304_);" d="M394.03,830.42h-4.74
			c-0.54,0-1.04,0.29-1.31,0.76l-2.37,4.1c-0.27,0.47-0.27,1.04,0,1.51l2.37,4.1c0.27,0.47,0.77,0.76,1.31,0.76h4.74
			c0.54,0,1.04-0.29,1.31-0.76l2.37-4.1c0.27-0.47,0.27-1.04,0-1.51l-2.37-4.1C395.07,830.71,394.57,830.42,394.03,830.42z"/>
	</g>
	<g>
		
			<linearGradient id="SVGID_00000168092333244845243900000011451910914450322315_" gradientUnits="userSpaceOnUse" x1="454.244" y1="853.1992" x2="405.8781" y2="810.262">
			<stop  offset="0" style="stop-color:#752648"/>
			<stop  offset="0.4428" style="stop-color:#73274A;stop-opacity:0.5572"/>
			<stop  offset="0.6024" style="stop-color:#6C2A4F;stop-opacity:0.3976"/>
			<stop  offset="0.716" style="stop-color:#61305A;stop-opacity:0.284"/>
			<stop  offset="0.808" style="stop-color:#503868;stop-opacity:0.192"/>
			<stop  offset="0.8867" style="stop-color:#3A437B;stop-opacity:0.1133"/>
			<stop  offset="0.9551" style="stop-color:#1F4F92;stop-opacity:0.0449"/>
			<stop  offset="1" style="stop-color:#095AA5;stop-opacity:0"/>
		</linearGradient>
		<path style="fill:url(#SVGID_00000168092333244845243900000011451910914450322315_);" d="M432.95,825.53h-3.8
			c-1.35,0-2.61,0.72-3.28,1.9l-1.9,3.29c-0.68,1.17-0.68,2.62,0,3.79l1.9,3.29c0.68,1.17,1.93,1.9,3.28,1.9h3.8
			c1.35,0,2.61-0.72,3.28-1.9l1.9-3.29c0.68-1.17,0.68-2.62,0-3.79l-1.9-3.29C435.56,826.26,434.31,825.53,432.95,825.53z"/>
		
			<linearGradient id="SVGID_00000141449647480791987080000012467634820121591446_" gradientUnits="userSpaceOnUse" x1="421.3224" y1="842.0922" x2="438.93" y2="824.9413">
			<stop  offset="0" style="stop-color:#752648"/>
			<stop  offset="0.4428" style="stop-color:#73274A;stop-opacity:0.5572"/>
			<stop  offset="0.6024" style="stop-color:#6C2A4F;stop-opacity:0.3976"/>
			<stop  offset="0.716" style="stop-color:#61305A;stop-opacity:0.284"/>
			<stop  offset="0.808" style="stop-color:#503868;stop-opacity:0.192"/>
			<stop  offset="0.8867" style="stop-color:#3A437B;stop-opacity:0.1133"/>
			<stop  offset="0.9551" style="stop-color:#1F4F92;stop-opacity:0.0449"/>
			<stop  offset="1" style="stop-color:#095AA5;stop-opacity:0"/>
		</linearGradient>
		<path style="fill:url(#SVGID_00000141449647480791987080000012467634820121591446_);" d="M433.42,827h-4.74
			c-0.54,0-1.04,0.29-1.31,0.76l-2.37,4.1c-0.27,0.47-0.27,1.04,0,1.51l2.37,4.1c0.27,0.47,0.77,0.76,1.31,0.76h4.74
			c0.54,0,1.04-0.29,1.31-0.76l2.37-4.1c0.27-0.47,0.27-1.04,0-1.51l-2.37-4.1C434.46,827.29,433.96,827,433.42,827z"/>
	</g>
	
		<linearGradient id="SVGID_00000129205427069371298840000002335515914158030986_" gradientUnits="userSpaceOnUse" x1="236.9818" y1="362.9957" x2="490.4454" y2="581.0923">
		<stop  offset="0" style="stop-color:#536A77"/>
		<stop  offset="1" style="stop-color:#2A2E49"/>
	</linearGradient>
	<path style="fill:url(#SVGID_00000129205427069371298840000002335515914158030986_);" d="M551.64,510.36H242.93
		c-2.73,0-4.94-2.21-4.94-4.94v-8.96c0-2.73,2.21-4.94,4.94-4.94h308.71c2.73,0,4.94,2.21,4.94,4.94v8.96
		C556.58,508.14,554.37,510.36,551.64,510.36z"/>
	
		<linearGradient id="SVGID_00000139254133907261171530000012230869572210645416_" gradientUnits="userSpaceOnUse" x1="225.9112" y1="345.3524" x2="573.762" y2="623.9277">
		<stop  offset="0" style="stop-color:#536A77"/>
		<stop  offset="1" style="stop-color:#2A2E49"/>
	</linearGradient>
	<path style="fill:url(#SVGID_00000139254133907261171530000012230869572210645416_);" d="M543.08,491.51H251.5
		c-2.73,0-4.94-2.21-4.94-4.94v-7.95c0-2.73,2.21-4.94,4.94-4.94h291.58c2.73,0,4.94,2.21,4.94,4.94v7.95
		C548.02,489.3,545.81,491.51,543.08,491.51z"/>
	
		<linearGradient id="SVGID_00000087398856084913530970000000384638520209165741_" gradientUnits="userSpaceOnUse" x1="291.1289" y1="354.8172" x2="561.4989" y2="635.5292">
		<stop  offset="0" style="stop-color:#536A77"/>
		<stop  offset="1" style="stop-color:#2A2E49"/>
	</linearGradient>
	<path style="fill:url(#SVGID_00000087398856084913530970000000384638520209165741_);" d="M536.23,474.39H260.06
		c-2.73,0-4.94-2.21-4.94-4.94v-7.04c0-2.73,2.21-4.94,4.94-4.94h276.17c2.73,0,4.94,2.21,4.94,4.94v7.04
		C541.17,472.17,538.96,474.39,536.23,474.39z"/>
	
		<linearGradient id="SVGID_00000146487248088707459930000002617879350286955149_" gradientUnits="userSpaceOnUse" x1="65.5193" y1="314.6976" x2="720.9817" y2="938.1151">
		<stop  offset="0" style="stop-color:#BBD1C4"/>
		<stop  offset="1" style="stop-color:#534976"/>
	</linearGradient>
	<path style="fill:url(#SVGID_00000146487248088707459930000002617879350286955149_);" d="M583.36,615.31
		c-1.71,62.16-131.89,93.24-145.59,93.24s-27.63,13.81-27.63,13.81h-35.97l0,0c0,0-13.7-13.81-27.41-13.81
		s-143.88-31.08-145.59-93.24h381.96H583.36z"/>
	
		<linearGradient id="SVGID_00000042737756355331995600000008983587378731932820_" gradientUnits="userSpaceOnUse" x1="415.8875" y1="758.8284" x2="333.3478" y2="705.4204">
		<stop  offset="0" style="stop-color:#222526"/>
		<stop  offset="1" style="stop-color:#414345"/>
	</linearGradient>
	
		<rect x="380.16" y="723.22" style="fill:url(#SVGID_00000042737756355331995600000008983587378731932820_);" width="22.27" height="39.4"/>
	
		<linearGradient id="SVGID_00000183246603488841522000000006412380844138095257_" gradientUnits="userSpaceOnUse" x1="112.6899" y1="268.9072" x2="695.3232" y2="819.4956">
		<stop  offset="0" style="stop-color:#BBD1C4"/>
		<stop  offset="1" style="stop-color:#534976"/>
	</linearGradient>
	<path style="fill:url(#SVGID_00000183246603488841522000000006412380844138095257_);" d="M577.91,507.09
		c0,0,70.68-1.22,27.68,30.73c-43,31.95-55.35,78.65-55.35,78.65l-0.86,0.86H237.63l-0.13-0.86c0,0-12.35-46.7-55.35-78.65
		c-43-31.95,27.68-30.73,27.68-30.73"/>
	
		<linearGradient id="SVGID_00000080886930085925689800000018363392766257546678_" gradientUnits="userSpaceOnUse" x1="512.776" y1="431.0641" x2="276.7791" y2="221.5566">
		<stop  offset="0" style="stop-color:#536A77"/>
		<stop  offset="1" style="stop-color:#2A2E49"/>
	</linearGradient>
	<path style="fill:url(#SVGID_00000080886930085925689800000018363392766257546678_);" d="M438.13,339.07h-77.01
		c-2.73,0-4.94-2.21-4.94-4.94v-7.04c0-2.73,2.21-4.94,4.94-4.94h77.01c2.73,0,4.94,2.21,4.94,4.94v7.04
		C443.07,336.86,440.86,339.07,438.13,339.07z"/>
	<g>
		<path d="M427.74,261.48c0-0.19-0.02-0.39-0.04-0.58c-0.04-0.3-0.2-0.45-0.46-0.46c-0.43-0.02-0.61,0.09-0.68,0.43
			c-0.04,0.21-0.07,0.42-0.07,0.63c-0.01,2.25-0.01,4.5,0,6.76c0,0.29,0.04,0.58,0.08,0.86c0.04,0.28,0.2,0.39,0.52,0.4
			c0.32,0.01,0.53-0.12,0.58-0.39c0.04-0.26,0.08-0.52,0.08-0.78c0.01-1.14,0-2.28,0-3.43
			C427.74,263.78,427.74,262.63,427.74,261.48z"/>
		<path d="M399.17,215c-27.21,0-49.27,22.06-49.27,49.27s22.06,49.27,49.27,49.27s49.27-22.06,49.27-49.27S426.38,215,399.17,215z
			 M421.08,254.03c-0.41,0.1-0.8-0.02-1.2-0.09c-0.35-0.06-0.7-0.13-1.05-0.18c-0.14-0.02-0.28,0.04-0.42,0.03
			c-0.41-0.04-0.82-0.1-1.23-0.15c-0.05-0.01-0.1,0-0.15,0c-0.31-0.02-0.61-0.05-0.92-0.06c-0.21-0.01-0.43-0.01-0.64-0.01
			c-1.14,0-2.27,0-3.41,0.01c-0.4,0-0.8,0.05-1.2,0.06c-0.1,0-0.2-0.05-0.3-0.08c-0.06-0.01-0.12-0.02-0.18-0.01
			c-0.12,0.02-0.2,0-0.29-0.11c-0.12-0.16-0.3-0.28-0.44-0.43c-0.12-0.12-0.21-0.27-0.33-0.4c-0.1-0.1-0.22-0.17-0.32-0.26
			c-0.36-0.32-0.74-0.64-1.08-0.98c-0.48-0.47-1.07-0.77-1.59-1.18c-0.53-0.41-1.14-0.69-1.71-1.02c-0.56-0.32-1.16-0.57-1.75-0.85
			c-0.15-0.07-0.31-0.1-0.47-0.16c-0.3-0.11-0.59-0.23-0.89-0.33c-0.12-0.04-0.26-0.05-0.39-0.08c-0.32-0.09-0.63-0.22-0.95-0.29
			c-0.69-0.14-1.4-0.25-2.1-0.35c-0.31-0.05-0.62-0.08-0.93-0.1c-0.44-0.03-0.89-0.03-1.33,0.01c-0.7,0.06-1.41,0.14-2.1,0.26
			c-1.61,0.28-3.14,0.8-4.6,1.53c-1.23,0.61-2.38,1.35-3.44,2.24c-2.09,1.75-3.71,3.86-4.83,6.34c-0.59,1.31-1.01,2.67-1.27,4.09
			c-0.21,1.17-0.31,2.35-0.27,3.54c0.13,3.9,1.39,7.4,3.81,10.47c1.61,2.04,3.6,3.62,5.91,4.82c1.63,0.84,3.35,1.39,5.16,1.67
			c3.1,0.47,6.13,0.16,9.06-0.97c1.76-0.68,3.36-1.62,4.82-2.81c0.77-0.63,1.47-1.33,2.14-2.07c0.1-0.11,0.2-0.15,0.35-0.14
			c1.68,0.08,3.37,0.15,5.05,0.08c1.65-0.07,3.31-0.2,4.96-0.31c0.17-0.01,0.67-0.11,0.84-0.13c0.07-0.01,0.15,0.02,0.22,0.04
			c-0.02,0.08-0.02,0.16-0.05,0.23c-1.07,2.28-2.4,4.4-4.05,6.32c-0.35,0.4-0.7,0.79-1.03,1.17c-0.75-0.41-1.58-0.52-2.34-0.79
			c-0.13-0.05-0.2,0.02-0.29,0.09c-1.13,1.02-2.33,1.94-3.62,2.75c-2.22,1.39-4.61,2.4-7.16,3.03c-0.04,0.01-0.07,0.02-0.11,0.03
			c-0.02,0.01-0.04,0.02-0.07,0.04c0.19,0.68,0.37,1.36,0.56,2.04c0.04,0.16,0.03,0.23-0.15,0.26c-0.97,0.17-1.94,0.37-2.91,0.53
			c-1.43,0.24-2.87,0.32-4.31,0.26c-0.81-0.03-1.62-0.11-2.42-0.23c-1.06-0.16-2.11-0.38-3.17-0.56c-0.16-0.03-0.18-0.08-0.14-0.23
			c0.18-0.61,0.34-1.23,0.52-1.84c0.04-0.14-0.01-0.18-0.13-0.21c-0.79-0.25-1.59-0.5-2.37-0.77c-2.78-0.94-5.23-2.46-7.49-4.3
			c-0.65-0.53-1.33-1.03-1.99-1.53c-0.38,0.37-0.78,0.75-1.17,1.12c-0.06,0.06-0.18,0.19-0.24,0.25c-0.08,0.08-0.15,0.07-0.23-0.03
			c-0.24-0.28-0.49-0.54-0.72-0.82c-0.54-0.66-1.09-1.32-1.58-2.01c-0.56-0.79-1.09-1.61-1.58-2.44c-0.42-0.72-0.79-1.47-1.16-2.23
			c-0.49-1-1.16-2.78-1.41-3.8c0.08-0.03,0.17-0.07,0.26-0.09c0.61-0.16,1.22-0.31,1.83-0.46c0.14-0.03,0.16-0.08,0.13-0.21
			c-0.19-0.78-0.4-1.56-0.56-2.34c-0.14-0.71-0.23-1.42-0.3-2.14c-0.07-0.73-0.12-1.47-0.11-2.2c0.02-1.72,0.17-3.43,0.59-5.11
			c0.12-0.49,0.26-0.98,0.4-1.47c0.05-0.17,0-0.22-0.16-0.26c-0.64-0.15-1.27-0.31-1.91-0.46c-0.15-0.04-0.19-0.1-0.15-0.26
			c0.53-1.76,1.21-3.45,2.07-5.07c1.11-2.08,2.45-4,4.06-5.73c0.08-0.09,0.15-0.18,0.22-0.28c0.21-0.28,0.34-0.06,0.69,0.46
			c0.2,0.3,0.48,0.51,0.79,0.69c0.1,0.06,0.15,0.15,0.23,0.24c0.34-0.27,0.63-0.53,0.95-0.77c1.2-0.91,2.32-1.92,3.59-2.73
			c1.44-0.91,2.93-1.7,4.54-2.27c0.9-0.32,1.83-0.57,2.76-0.83c0.16-0.05,0.21-0.09,0.15-0.26c-0.19-0.64-0.37-1.28-0.56-1.91
			c-0.05-0.15,0.03-0.19,0.14-0.21c0.52-0.11,1.03-0.23,1.55-0.31c0.87-0.14,1.74-0.3,2.61-0.38c0.97-0.08,1.95-0.1,2.92-0.1
			c0.68,0,1.36,0.05,2.03,0.15c1.2,0.18,2.4,0.41,3.59,0.61c0.04,0.01,0.09,0.01,0.13,0.02c0.16,0.03,0.18,0.12,0.14,0.27
			c-0.17,0.6-0.34,1.21-0.5,1.82c-0.02,0.06-0.03,0.12-0.05,0.21c0.31,0.09,0.61,0.17,0.91,0.26c3.28,0.92,6.22,2.48,8.84,4.65
			c0.4,0.33,0.78,0.7,1.18,1.04c0.06,0.05,0.16,0.07,0.23,0.05c0.68-0.2,1.35-0.41,2.02-0.62c0.07-0.02,0.14-0.05,0.18-0.1
			c0.13-0.15,0.22-0.1,0.33,0.02c0.69,0.83,1.42,1.64,2.08,2.5c1.26,1.65,2.28,3.46,3.12,5.36c0.03,0.06,0.02,0.14,0.03,0.21
			c-0.07,0.01-0.14,0.02-0.22,0.02C421.41,254.01,421.24,253.99,421.08,254.03z M421.08,263.55c0,0.34-0.06,0.68-0.12,1.01
			c-0.13,0.63-0.54,1.04-1.11,1.3c-0.58,0.26-1.19,0.38-1.81,0.4c-0.62,0.02-1.24,0-1.88,0v5.25h-4.37c0-4.36,0-8.71,0-13.08
			c0.06-0.01,0.11-0.01,0.16-0.01c1.47,0,2.95-0.01,4.42,0.01c0.89,0.01,1.78,0.03,2.65,0.26c0.63,0.17,1.2,0.41,1.6,0.96
			c0.3,0.42,0.41,0.9,0.44,1.4C421.08,261.89,421.09,262.72,421.08,263.55z M400.79,266.8h4.06c0,0.08,0,0.16,0,0.25
			c0.01,0.64,0.01,1.28,0.04,1.91c0.02,0.35,0.16,0.48,0.43,0.53c0.42,0.08,0.76-0.03,0.89-0.32c0.08-0.19,0.14-0.41,0.14-0.61
			c0-0.32-0.05-0.64-0.09-0.96c-0.04-0.3-0.22-0.57-0.49-0.72c-0.68-0.39-1.37-0.78-2.06-1.16c-0.51-0.28-1.01-0.56-1.52-0.85
			c-0.89-0.52-1.38-1.31-1.51-2.32c-0.09-0.69-0.05-1.39,0.1-2.07c0.16-0.71,0.57-1.22,1.18-1.57c0.75-0.44,1.57-0.62,2.43-0.7
			c0.58-0.06,1.17-0.06,1.76-0.02c0.89,0.07,1.76,0.24,2.57,0.63c0.76,0.36,1.24,0.92,1.33,1.76c0.07,0.62,0.09,1.24,0.13,1.89
			c-1.39,0-2.72,0-4.08,0c0-0.07-0.01-0.13-0.01-0.2c-0.01-0.42-0.02-0.84-0.04-1.26c-0.02-0.34-0.15-0.49-0.42-0.54
			c-0.35-0.06-0.66,0.07-0.79,0.34c-0.32,0.64-0.08,1.57,0.54,1.92c0.5,0.3,1.05,0.53,1.56,0.81c0.69,0.38,1.38,0.77,2.06,1.18
			c0.78,0.48,1.24,1.18,1.39,2.09c0.15,0.85,0.16,1.7,0.02,2.56c-0.14,0.87-0.67,1.42-1.44,1.79c-0.76,0.36-1.56,0.56-2.39,0.62
			c-1.01,0.08-2.01,0.05-3-0.2c-0.52-0.13-1.01-0.33-1.48-0.61c-0.62-0.37-1-0.9-1.17-1.61C400.75,268.52,400.8,267.67,400.79,266.8
			z M395.47,267.52c-0.05-0.31-0.27-0.53-0.54-0.68c-0.41-0.23-0.84-0.45-1.25-0.69c-0.75-0.44-1.52-0.85-2.27-1.29
			c-0.89-0.52-1.36-1.31-1.5-2.31c-0.09-0.67-0.05-1.34,0.08-2c0.19-0.96,0.82-1.53,1.68-1.89c0.68-0.29,1.39-0.41,2.12-0.47
			c0.99-0.08,1.97-0.03,2.94,0.21c0.44,0.11,0.88,0.28,1.3,0.46c0.7,0.31,1.18,0.97,1.26,1.73c0.06,0.61,0.08,1.23,0.12,1.87h-4.09
			c0-0.34,0.01-0.68,0-1.01c-0.01-0.22-0.04-0.44-0.07-0.65c-0.03-0.18-0.15-0.27-0.32-0.32c-0.48-0.13-0.89,0.13-0.93,0.62
			c-0.02,0.25-0.02,0.52,0.01,0.77c0.04,0.33,0.19,0.62,0.5,0.79c0.47,0.26,0.95,0.51,1.43,0.76c0.85,0.43,1.7,0.87,2.48,1.43
			c0.67,0.48,1.06,1.12,1.21,1.93c0.16,0.86,0.16,1.72,0.03,2.58c-0.13,0.87-0.66,1.44-1.44,1.81c-0.75,0.36-1.55,0.55-2.38,0.62
			c-0.96,0.08-1.91,0.07-2.84-0.17c-0.48-0.12-0.96-0.3-1.41-0.51c-0.86-0.4-1.36-1.1-1.47-2.03c-0.08-0.74-0.1-1.49-0.14-2.25
			c1.39,0,2.73,0,4.1,0c0,0.07,0,0.15,0,0.22c0.01,0.64,0.01,1.29,0.04,1.93c0.02,0.35,0.16,0.49,0.43,0.54
			c0.42,0.08,0.76-0.02,0.9-0.32c0.08-0.18,0.15-0.39,0.14-0.59C395.58,268.23,395.53,267.87,395.47,267.52z M432.09,267.44
			c-0.01,0.53-0.04,1.07-0.14,1.59c-0.15,0.84-0.67,1.45-1.36,1.91c-0.68,0.45-1.44,0.69-2.24,0.77c-0.58,0.06-1.16,0.1-1.74,0.07
			c-1.12-0.05-2.2-0.27-3.13-0.95c-0.64-0.46-1.08-1.06-1.23-1.85c-0.05-0.28-0.09-0.57-0.1-0.86c-0.02-1.81-0.04-3.61-0.03-5.42
			c0-0.57,0.04-1.15,0.13-1.71c0.16-0.96,0.75-1.62,1.56-2.1c0.67-0.39,1.41-0.61,2.18-0.67c0.63-0.05,1.28-0.08,1.91-0.03
			c1.11,0.08,2.18,0.35,3.05,1.1c0.64,0.55,1.03,1.23,1.06,2.09c0.04,1.2,0.08,2.4,0.12,3.6c-0.01,0-0.03,0-0.04,0
			C432.1,265.8,432.12,266.62,432.09,267.44z"/>
		<path d="M416.78,260.79c-0.14-0.03-0.28-0.03-0.42-0.05c-0.17-0.03-0.23,0.02-0.23,0.2c0.01,0.73-0.01,1.45,0.01,2.18
			c0.01,0.22-0.01,0.43-0.01,0.65c0,0.19,0.07,0.25,0.25,0.23c0.12-0.01,0.24-0.02,0.36-0.03c0.35-0.03,0.62-0.32,0.64-0.67
			c0.03-0.6,0.05-1.2,0.03-1.79C417.4,261.03,417.25,260.89,416.78,260.79z"/>
	</g>
</g>
</svg>
